<svg xmlns="http://www.w3.org/2000/svg" width="180" height="180" viewBox="0 0 180 180">
<g>
<path d="M 0.00 0.00 L 180.00 0.00 L 180.00 180.00 L 0.00 180.00 ZM 88.44 175.54 C90.71,177.27 103.84,175.55 110.12,172.69 C116.83,169.64 125.54,164.44 129.00,161.41 C130.38,160.20 133.46,157.50 135.85,155.40 C145.52,146.92 159.32,120.00 154.00,120.00 C151.94,120.00 153.15,117.63 158.25,111.65 C166.45,102.04 167.30,100.37 171.97,84.75 C173.26,80.45 173.08,71.84 171.72,72.68 C171.03,73.10 170.90,71.52 171.34,67.91 C173.22,52.49 173.24,49.17 171.52,41.39 C170.57,37.05 169.33,32.94 168.77,32.25 C166.84,29.87 165.13,30.92 164.81,34.67 C164.35,40.14 162.40,39.85 161.02,34.10 C159.45,27.54 154.07,17.61 149.04,12.00 C145.35,7.89 145.11,7.76 146.14,10.50 C146.77,12.15 147.22,14.47 147.16,15.66 C147.09,16.85 147.93,21.31 149.02,25.57 C153.89,44.64 150.19,65.61 139.75,78.11 C131.93,87.46 122.37,92.45 123.18,86.75 C123.41,85.10 124.20,84.47 126.13,84.40 C127.58,84.35 130.19,83.29 131.92,82.06 C134.32,80.35 134.93,79.30 134.49,77.66 C128.69,56.42 120.92,45.39 107.00,38.65 C101.23,35.85 99.54,35.51 92.00,35.55 C79.93,35.62 73.52,38.30 64.88,46.92 C53.01,58.78 44.59,80.92 49.50,87.40 C51.22,89.67 50.41,91.59 48.42,89.94 C47.65,89.30 47.27,88.37 47.57,87.89 C47.87,87.40 47.39,87.00 46.50,87.00 C44.35,87.00 39.16,81.36 37.29,77.00 C36.47,75.07 35.00,72.75 34.03,71.83 C33.06,70.92 31.19,66.42 29.88,61.83 C26.73,50.79 26.67,31.95 29.76,18.75 C30.88,13.94 31.45,10.00 31.02,10.00 C28.94,10.00 18.32,26.12 16.86,31.50 C15.59,36.18 15.18,37.82 14.66,37.86 C14.39,37.88 14.09,37.47 13.62,36.83 C13.56,36.74 13.50,36.65 13.43,36.56 C12.64,35.49 12.00,32.90 12.00,30.81 C12.00,28.57 11.52,27.00 10.83,27.00 C10.19,27.00 9.95,27.28 10.29,27.62 C10.63,27.96 10.28,28.86 9.52,29.62 C5.54,33.61 3.06,53.64 5.27,64.01 C6.65,70.49 6.56,73.47 5.03,72.52 C4.59,72.24 3.94,73.93 3.59,76.26 C2.00,86.87 7.99,103.08 16.40,110.92 C17.83,112.26 19.00,113.95 19.00,114.67 C19.00,115.40 19.81,116.00 20.81,116.00 C21.80,116.00 24.14,117.12 26.00,118.50 C27.86,119.88 29.73,121.00 30.15,121.00 C32.58,121.00 54.00,139.02 54.00,141.07 C54.00,142.88 52.43,141.91 46.50,136.40 C43.20,133.34 38.41,129.66 35.87,128.23 C31.39,125.72 31.17,125.69 29.42,127.44 C27.67,129.18 27.54,129.16 25.55,126.72 C24.42,125.32 22.18,122.28 20.58,119.94 C17.83,115.96 17.61,115.83 16.85,117.88 C15.06,122.72 21.95,142.14 28.79,151.54 C35.11,160.21 43.30,167.24 51.69,171.19 C59.42,174.82 60.34,175.02 67.67,174.66 C75.02,174.29 75.51,174.13 76.55,171.57 C77.52,169.19 77.80,169.06 78.95,170.44 C80.95,172.85 82.78,172.31 84.72,168.75 L 86.50 165.50 L 86.80 170.00 C86.96,172.48 87.70,174.97 88.44,175.54 ZM 74.91 112.42 C73.75,114.39 72.68,116.00 72.52,116.00 C72.37,116.00 70.50,113.86 68.37,111.26 C66.24,108.65 62.15,104.03 59.27,101.01 C56.40,97.98 54.03,94.94 54.02,94.25 C53.99,92.46 56.52,92.71 58.13,94.66 C59.36,96.15 59.55,95.98 60.00,93.02 C60.68,88.52 63.23,86.99 65.94,89.45 C68.55,91.81 68.58,94.04 66.00,94.71 C64.84,95.01 64.00,96.07 64.00,97.23 C64.00,99.86 71.18,107.00 73.82,107.00 C76.94,107.00 77.24,108.48 74.91,112.42 ZM 85.75 82.30 C83.41,83.12 80.80,84.08 79.95,84.43 C79.09,84.78 78.12,84.79 77.78,84.45 C77.44,84.11 75.70,83.76 73.91,83.67 C72.13,83.57 70.48,82.94 70.25,82.25 C69.94,81.33 71.60,81.00 76.45,81.00 C81.66,81.00 84.17,80.43 88.28,78.32 C94.35,75.20 102.28,74.66 106.10,77.11 C107.64,78.10 109.99,78.50 112.64,78.23 C116.55,77.83 121.84,79.50 120.60,80.73 C120.29,81.05 116.92,81.47 113.11,81.68 C107.82,81.96 105.83,81.68 104.64,80.50 C103.48,79.34 101.41,79.01 96.55,79.22 C92.96,79.37 90.01,79.80 90.01,80.16 C90.00,80.52 88.09,81.48 85.75,82.30 ZM 125.13 139.09 C123.72,141.05 121.00,141.72 121.00,140.10 C121.00,139.60 122.46,138.28 124.25,137.15 C126.04,136.03 129.75,133.51 132.50,131.57 C135.25,129.62 137.87,128.02 138.32,128.02 C138.77,128.01 141.11,126.65 143.51,124.99 C147.94,121.95 150.47,122.41 147.85,125.79 C143.83,130.95 134.59,141.00 133.85,141.00 C133.38,141.00 133.00,139.84 133.00,138.42 C133.00,136.04 132.75,135.89 129.75,136.51 C127.96,136.87 125.88,138.03 125.13,139.09 ZM 107.39 136.42 C106.45,138.88 104.29,138.28 103.55,135.36 C102.78,132.27 103.96,130.66 106.33,131.57 C108.08,132.24 108.41,133.76 107.39,136.42 ZM 63.52 79.34 C61.20,81.65 58.00,81.38 58.00,78.87 C58.00,77.36 61.98,75.89 63.60,76.80 C65.03,77.59 65.02,77.84 63.52,79.34 ZM 106.80 156.59 C106.96,157.74 106.41,159.25 105.56,159.95 C104.29,161.01 103.91,160.93 103.35,159.48 C102.65,157.65 104.08,154.50 105.61,154.50 C106.10,154.50 106.63,155.44 106.80,156.59 ZM 28.00 97.02 C28.00,98.55 25.73,98.13 23.11,96.12 C21.47,94.86 21.09,94.06 21.91,93.56 C23.21,92.75 28.00,95.48 28.00,97.02 ZM 43.42 106.64 C43.70,107.39 43.33,108.00 42.58,108.00 C40.64,108.00 36.36,104.32 37.25,103.42 C38.20,102.47 42.72,104.83 43.42,106.64 ZM 119.35 120.17 C117.60,122.10 116.00,122.57 116.00,121.15 C116.00,119.82 119.59,116.92 120.33,117.67 C120.70,118.04 120.26,119.16 119.35,120.17 ZM 152.00 97.00 C152.00,97.55 151.30,98.00 150.44,98.00 C149.58,98.00 149.16,97.55 149.50,97.00 C149.84,96.45 150.54,96.00 151.06,96.00 C151.58,96.00 152.00,96.45 152.00,97.00 ZM 114.50 97.00 C114.16,97.55 113.46,98.00 112.94,98.00 C112.42,98.00 112.00,97.55 112.00,97.00 C112.00,96.45 112.70,96.00 113.56,96.00 C114.42,96.00 114.84,96.45 114.50,97.00 Z" fill="rgb(3,78,66)"/>
<path d="M 88.44 175.54 C87.70,174.97 86.96,172.48 86.80,170.00 L 86.50 165.50 L 84.72 168.75 C82.78,172.31 80.95,172.85 78.95,170.44 C77.80,169.06 77.52,169.19 76.55,171.57 C75.51,174.13 75.02,174.29 67.67,174.66 C60.34,175.02 59.42,174.82 51.69,171.19 C43.30,167.24 35.11,160.21 28.79,151.54 C21.95,142.14 15.06,122.72 16.85,117.88 C17.61,115.83 17.83,115.96 20.58,119.94 C22.18,122.28 24.42,125.32 25.55,126.72 C27.54,129.16 27.67,129.18 29.42,127.44 C31.17,125.69 31.39,125.72 35.87,128.23 C38.41,129.66 43.20,133.34 46.50,136.40 C52.43,141.91 54.00,142.88 54.00,141.07 C54.00,139.02 32.58,121.00 30.15,121.00 C29.73,121.00 27.86,119.88 26.00,118.50 C24.14,117.12 21.80,116.00 20.81,116.00 C19.81,116.00 19.00,115.40 19.00,114.67 C19.00,113.95 17.83,112.26 16.40,110.92 C7.99,103.08 2.00,86.87 3.59,76.26 C3.94,73.93 4.59,72.24 5.03,72.52 C6.56,73.47 6.65,70.49 5.27,64.01 C3.06,53.64 5.54,33.61 9.52,29.62 C10.28,28.86 10.63,27.96 10.29,27.62 C9.95,27.28 10.19,27.00 10.83,27.00 C11.52,27.00 12.00,28.57 12.00,30.81 C12.00,32.90 12.64,35.49 13.43,36.56 C13.50,36.65 13.56,36.74 13.62,36.83 C14.09,37.47 14.39,37.88 14.66,37.86 C15.18,37.82 15.59,36.18 16.86,31.50 C18.32,26.12 28.94,10.00 31.02,10.00 C31.07,10.00 31.11,10.05 31.13,10.16 C30.62,10.07 29.20,11.41 27.00,14.15 C17.74,25.67 12.50,48.72 16.67,59.58 C17.08,60.66 16.95,61.09 16.31,60.69 C14.47,59.56 11.77,47.75 11.11,38.00 L 10.46 28.50 L 8.74 33.50 C6.08,41.18 4.95,52.58 6.05,60.56 C8.26,76.57 18.02,88.76 39.02,101.73 C52.24,109.90 60.23,117.64 67.21,129.00 C73.19,138.75 77.15,148.88 79.55,160.50 C79.89,162.15 80.38,164.18 80.65,165.00 C81.05,166.22 81.33,166.15 82.20,164.59 C83.92,161.53 82.44,145.55 79.63,136.87 C74.50,121.01 68.66,112.46 51.05,95.00 C35.98,80.07 31.36,73.02 27.87,59.58 C24.62,47.05 25.93,24.29 30.54,13.25 C30.76,12.72 30.93,12.26 31.06,11.87 C30.87,13.48 30.41,15.97 29.76,18.75 C26.67,31.95 26.73,50.79 29.88,61.83 C31.19,66.42 33.06,70.92 34.03,71.83 C35.00,72.75 36.47,75.07 37.29,77.00 C39.16,81.36 44.35,87.00 46.50,87.00 C47.39,87.00 47.87,87.40 47.57,87.89 C47.27,88.37 47.65,89.30 48.42,89.94 C50.41,91.59 51.22,89.67 49.50,87.40 C48.76,86.42 48.32,85.08 48.15,83.48 C48.62,85.89 50.31,87.63 53.72,90.70 L 57.00 93.65 C55.55,92.69 54.00,92.84 54.02,94.25 C54.03,94.94 56.40,97.98 59.27,101.01 C62.15,104.03 66.24,108.65 68.37,111.26 C70.50,113.86 72.37,116.00 72.52,116.00 C72.68,116.00 73.75,114.39 74.91,112.42 C77.24,108.48 76.94,107.00 73.82,107.00 C71.18,107.00 64.00,99.86 64.00,97.23 C64.00,96.75 64.15,96.28 64.40,95.88 L 65.50 98.00 C67.78,102.42 73.09,106.00 77.34,106.00 C81.70,106.00 82.09,107.63 78.53,110.97 C75.51,113.81 75.62,114.66 80.20,124.05 C86.76,137.51 89.04,147.40 89.10,162.69 C89.12,167.36 89.38,171.81 89.67,172.59 C89.97,173.37 90.58,174.00 91.03,174.00 C93.07,174.00 97.90,167.61 99.86,162.32 C101.81,157.07 102.04,154.24 102.26,133.50 C102.50,110.59 102.51,110.48 105.33,104.37 C108.45,97.62 113.45,92.25 119.37,89.28 L 123.13 87.39 C123.14,92.04 132.25,87.08 139.75,78.11 C150.19,65.61 153.89,44.64 149.02,25.57 C147.93,21.31 147.09,16.85 147.16,15.66 C147.20,14.87 147.01,13.59 146.70,12.33 C153.06,29.39 153.76,55.63 148.11,67.90 C143.83,77.19 139.27,82.27 128.00,90.28 C117.30,97.88 112.47,102.30 110.81,106.00 C107.61,113.14 107.04,115.11 106.39,121.48 C105.59,129.34 106.64,129.83 110.93,123.60 C115.30,117.25 125.18,108.80 133.93,103.94 C157.42,90.89 166.36,81.38 170.60,64.91 C173.15,55.03 173.35,49.67 171.49,41.24 C171.50,41.29 171.51,41.34 171.52,41.39 C173.24,49.17 173.22,52.49 171.34,67.91 C170.90,71.52 171.03,73.10 171.72,72.68 C172.05,72.47 172.32,72.84 172.51,73.59 C172.18,73.69 171.01,75.66 169.49,78.73 C165.64,86.55 157.06,96.58 151.17,100.16 C149.15,101.39 147.27,102.66 147.00,102.98 C146.73,103.30 143.48,105.10 139.79,106.97 C136.10,108.84 131.82,111.42 130.29,112.71 C123.28,118.57 114.59,127.99 111.49,133.05 C108.12,138.56 105.43,147.27 106.54,149.07 C106.86,149.58 107.31,150.00 107.54,150.00 C107.77,150.00 111.23,146.72 115.23,142.71 C119.90,138.02 125.92,133.40 132.07,129.77 C142.91,123.37 152.31,116.54 156.03,112.35 C163.62,103.82 168.86,93.30 170.93,82.50 C171.56,79.20 172.30,75.38 172.57,74.00 C172.57,73.97 172.58,73.95 172.58,73.92 C173.06,76.36 172.89,81.66 171.97,84.75 C167.30,100.37 166.45,102.04 158.25,111.65 C153.15,117.63 151.94,120.00 154.00,120.00 C159.32,120.00 145.52,146.92 135.85,155.40 C133.46,157.50 130.38,160.20 129.00,161.41 C125.54,164.44 116.83,169.64 110.12,172.69 C103.84,175.55 90.71,177.27 88.44,175.54 ZM 71.20 166.80 C73.35,168.95 74.00,168.08 74.00,163.09 C74.00,156.73 69.23,142.21 64.49,134.11 C57.27,121.80 43.96,109.88 30.00,103.21 C21.01,98.92 10.47,87.03 6.33,76.50 C4.14,70.92 4.74,84.94 7.01,92.30 C10.33,103.05 16.16,109.84 29.00,117.96 C43.63,127.21 50.93,133.38 57.99,142.51 C62.30,148.07 70.00,161.97 70.00,164.18 C70.00,164.96 70.54,166.14 71.20,166.80 ZM 59.00 172.32 C61.58,173.22 66.85,173.05 67.47,172.04 C67.80,171.51 67.63,170.28 67.09,169.29 C66.56,168.31 64.71,164.61 62.98,161.07 C61.26,157.53 58.55,152.75 56.96,150.44 C52.07,143.34 33.93,127.74 32.37,129.30 C32.04,129.62 33.90,133.09 36.50,137.00 C39.10,140.91 40.98,144.35 40.69,144.65 C38.43,146.90 28.75,136.56 21.51,124.18 C19.48,120.70 17.64,118.03 17.42,118.25 C16.50,119.16 20.33,131.09 24.04,138.88 C31.90,155.37 44.21,167.15 59.00,172.32 ZM 101.65 172.24 C102.38,173.42 103.72,173.17 109.31,170.82 C118.42,166.98 129.77,159.04 136.45,151.84 C142.93,144.83 150.90,132.42 151.29,128.70 C151.64,125.37 149.64,125.85 146.86,129.77 C142.02,136.61 128.80,150.00 126.88,150.00 C124.46,150.00 124.51,148.94 127.12,144.51 C128.29,142.53 128.98,140.65 128.65,140.32 C127.77,139.44 119.75,146.28 113.98,152.83 C108.51,159.05 100.90,171.03 101.65,172.24 ZM 85.75 82.30 C88.09,81.48 90.00,80.52 90.01,80.16 C90.01,79.80 92.96,79.37 96.55,79.22 C101.41,79.01 103.48,79.34 104.64,80.50 C105.83,81.68 107.82,81.96 113.11,81.68 C116.92,81.47 120.29,81.05 120.60,80.73 C121.37,79.96 119.60,79.02 117.20,78.52 C120.70,78.75 121.81,79.40 124.26,81.77 L 126.88 84.31 C126.61,84.36 126.36,84.39 126.13,84.40 C124.20,84.47 123.41,85.10 123.18,86.75 C123.16,86.93 123.14,87.09 123.13,87.25 L 120.37 85.06 C117.91,83.12 116.71,82.87 112.02,83.35 C107.96,83.76 106.12,83.52 104.90,82.41 C101.61,79.44 96.78,79.59 89.24,82.89 C80.66,86.66 73.44,87.03 67.50,84.00 L 67.32 83.91 C64.36,82.40 63.43,81.92 63.13,82.18 C63.00,82.30 63.00,82.57 63.00,82.97 L 63.00 83.02 C63.00,85.26 71.39,92.98 75.56,94.58 C77.98,95.50 79.72,96.65 79.42,97.13 C78.57,98.50 71.29,98.15 67.47,96.55 L 64.77 95.42 C65.10,95.09 65.52,94.83 66.00,94.71 C68.58,94.04 68.55,91.81 65.94,89.45 C63.23,86.99 60.68,88.52 60.00,93.02 C59.86,93.98 59.74,94.64 59.60,95.05 L 59.83 93.20 C60.01,91.71 60.53,90.12 60.98,89.65 C61.44,89.18 60.96,86.93 59.93,84.65 C59.36,83.40 58.90,81.88 58.58,80.37 C59.60,81.35 61.80,81.05 63.52,79.34 C65.02,77.84 65.03,77.59 63.60,76.80 C62.20,76.01 59.05,77.00 58.21,78.26 C57.83,75.40 57.99,73.00 58.88,73.00 C59.36,73.00 60.37,73.75 61.13,74.66 C61.88,75.57 64.75,77.37 67.50,78.65 C70.64,80.11 73.80,80.90 76.93,81.00 C76.77,81.00 76.61,81.00 76.45,81.00 C71.60,81.00 69.94,81.33 70.25,82.25 C70.48,82.94 72.13,83.57 73.91,83.67 C75.70,83.76 77.44,84.11 77.78,84.45 C78.12,84.79 79.09,84.78 79.95,84.43 C80.80,84.08 83.41,83.12 85.75,82.30 ZM 125.13 139.09 C125.88,138.03 127.96,136.87 129.75,136.51 C132.75,135.89 133.00,136.04 133.00,138.42 C133.00,139.84 133.38,141.00 133.85,141.00 C134.59,141.00 143.83,130.95 147.85,125.79 C150.47,122.41 147.94,121.95 143.51,124.99 C141.11,126.65 138.77,128.01 138.32,128.02 C137.87,128.02 135.25,129.62 132.50,131.57 C129.75,133.51 126.04,136.03 124.25,137.15 C122.46,138.28 121.00,139.60 121.00,140.10 C121.00,141.72 123.72,141.05 125.13,139.09 ZM 149.08 12.04 C154.10,17.67 159.45,27.56 161.02,34.10 C162.40,39.85 164.35,40.14 164.81,34.67 C165.05,31.83 166.09,30.54 167.42,31.12 C166.57,31.09 166.00,33.27 165.98,37.81 C165.96,43.66 164.03,54.28 162.06,59.39 C160.39,63.71 160.14,62.25 161.33,55.21 C163.06,44.97 161.07,34.63 155.01,22.43 C153.05,18.48 150.75,14.50 149.08,12.04 ZM 103.23 89.03 C99.64,92.30 97.25,92.81 96.36,90.49 C95.37,87.92 97.96,86.00 102.37,86.03 L 106.50 86.06 ZM 107.39 136.42 C108.41,133.76 108.08,132.24 106.33,131.57 C103.96,130.66 102.78,132.27 103.55,135.36 C104.29,138.28 106.45,138.88 107.39,136.42 ZM 106.80 156.59 C106.63,155.44 106.10,154.50 105.61,154.50 C104.08,154.50 102.65,157.65 103.35,159.48 C103.91,160.93 104.29,161.01 105.56,159.95 C106.41,159.25 106.96,157.74 106.80,156.59 ZM 28.00 97.02 C28.00,95.48 23.21,92.75 21.91,93.56 C21.09,94.06 21.47,94.86 23.11,96.12 C25.73,98.13 28.00,98.55 28.00,97.02 ZM 43.42 106.64 C42.72,104.83 38.20,102.47 37.25,103.42 C36.36,104.32 40.64,108.00 42.58,108.00 C43.33,108.00 43.70,107.39 43.42,106.64 ZM 119.35 120.17 C120.26,119.16 120.70,118.04 120.33,117.67 C119.59,116.92 116.00,119.82 116.00,121.15 C116.00,122.57 117.60,122.10 119.35,120.17 ZM 114.50 97.00 C114.84,96.45 114.42,96.00 113.56,96.00 C112.70,96.00 112.00,96.45 112.00,97.00 C112.00,97.55 112.42,98.00 112.94,98.00 C113.46,98.00 114.16,97.55 114.50,97.00 ZM 152.00 97.00 C152.00,96.45 151.58,96.00 151.06,96.00 C150.54,96.00 149.84,96.45 149.50,97.00 C149.16,97.55 149.58,98.00 150.44,98.00 C151.30,98.00 152.00,97.55 152.00,97.00 ZM 48.15 80.18 C48.46,76.46 49.71,71.94 51.65,67.28 C50.83,69.39 50.14,71.55 49.57,73.73 C48.87,76.44 48.37,78.50 48.15,80.18 ZM 103.60 76.06 C104.47,76.28 105.26,76.57 105.95,76.95 C106.97,77.51 109.48,78.02 112.13,78.27 C109.69,78.44 107.54,78.03 106.10,77.11 C105.39,76.66 104.55,76.31 103.60,76.06 ZM 168.21 31.65 C168.39,31.82 168.58,32.02 168.77,32.25 C169.21,32.79 170.06,35.44 170.88,38.66 C169.94,35.00 169.01,32.64 168.21,31.65 ZM 80.31 80.84 C83.00,80.51 85.66,79.67 88.28,78.32 C85.33,79.84 83.21,80.56 80.31,80.84 ZM 130.96 82.67 L 131.33 82.42 C132.74,81.46 133.63,80.74 134.13,80.06 C133.70,80.67 132.99,81.30 131.92,82.06 C131.62,82.27 131.30,82.47 130.96,82.67 ZM 59.15 95.58 C58.91,95.56 58.60,95.23 58.13,94.66 C58.12,94.66 58.12,94.65 58.11,94.64 Z" fill="rgb(62,66,35)"/>
<path d="M 59.00 172.32 C44.25,167.17 31.97,155.45 24.11,139.03 C24.53,139.45 24.80,139.08 25.15,138.13 C25.58,136.96 26.68,136.00 27.59,136.00 C29.12,136.00 29.12,135.83 27.63,133.75 C27.18,133.12 26.29,131.75 25.23,130.06 C31.72,139.61 38.80,146.53 40.69,144.65 C40.98,144.35 39.10,140.91 36.50,137.00 C36.26,136.64 36.03,136.29 35.81,135.94 C37.01,137.56 37.66,137.70 38.55,136.96 C39.33,136.31 40.72,136.06 41.63,136.41 C42.96,136.92 43.05,136.77 42.12,135.64 C41.98,135.47 41.81,135.29 41.61,135.09 C47.40,139.89 54.24,146.48 56.96,150.44 C58.55,152.75 61.26,157.53 62.98,161.07 C64.71,164.61 66.56,168.31 67.09,169.29 C67.63,170.28 67.80,171.51 67.47,172.04 C66.85,173.05 61.58,173.22 59.00,172.32 ZM 101.65 172.24 C100.90,171.03 108.51,159.05 113.98,152.83 C119.75,146.28 127.77,139.44 128.65,140.32 C128.98,140.65 128.29,142.53 127.12,144.51 C124.51,148.94 124.46,150.00 126.88,150.00 C128.80,150.00 142.02,136.61 146.86,129.77 C147.26,129.22 147.63,128.73 147.99,128.32 C147.13,129.41 145.97,131.02 144.33,133.32 C142.08,136.50 141.87,137.30 143.06,138.06 C145.33,139.50 145.83,139.23 148.34,135.25 C148.77,134.58 149.15,133.94 149.49,133.34 C146.70,138.73 141.18,146.72 136.45,151.84 C129.77,159.04 118.42,166.98 109.31,170.82 C103.72,173.17 102.38,173.42 101.65,172.24 ZM 83.52 131.24 C86.09,137.70 86.27,137.89 87.85,136.04 C88.76,134.98 90.18,134.01 91.00,133.88 C93.51,133.49 100.99,136.00 101.17,137.29 C101.26,137.95 101.62,132.20 101.97,124.50 C102.22,119.15 102.43,115.68 102.79,113.02 C102.44,116.70 102.37,122.44 102.26,133.50 C102.04,154.24 101.81,157.07 99.86,162.32 C97.90,167.61 93.07,174.00 91.03,174.00 C90.58,174.00 89.97,173.37 89.67,172.59 C89.38,171.81 89.12,167.36 89.10,162.69 C89.04,147.40 86.76,137.51 80.20,124.05 C79.72,123.06 79.29,122.17 78.90,121.37 C80.00,123.19 82.06,127.59 83.52,131.24 ZM 71.20 166.80 C70.54,166.14 70.00,164.96 70.00,164.18 C70.00,161.97 62.30,148.07 57.99,142.51 C53.25,136.39 48.41,131.60 41.32,126.31 C45.14,129.10 48.03,131.49 49.97,133.47 C52.42,135.96 54.66,138.00 54.97,138.00 C55.27,138.00 56.08,137.10 56.77,136.00 C58.29,133.57 60.72,133.44 63.17,135.65 C66.74,138.88 65.21,134.49 60.62,128.36 C59.54,126.92 58.43,125.52 57.28,124.16 C60.07,127.38 62.51,130.73 64.49,134.11 C69.23,142.21 74.00,156.73 74.00,163.09 C74.00,168.08 73.35,168.95 71.20,166.80 ZM 78.00 136.50 C80.20,140.61 80.13,138.62 78.91,134.69 C79.15,135.40 79.39,136.13 79.63,136.87 C82.44,145.55 83.92,161.53 82.20,164.59 C81.33,166.15 81.05,166.22 80.65,165.00 C80.38,164.18 79.89,162.15 79.55,160.50 C77.24,149.29 73.47,139.48 67.84,130.04 C72.16,136.93 72.83,137.50 73.84,135.88 C75.41,133.36 76.40,133.51 78.00,136.50 ZM 109.45 136.94 L 111.36 135.68 C114.60,133.56 116.41,133.56 118.53,135.68 C119.84,136.98 120.58,137.10 121.86,136.23 C122.40,135.87 124.33,134.66 126.85,133.11 C122.59,136.05 118.56,139.36 115.23,142.71 C111.23,146.72 107.77,150.00 107.54,150.00 C107.31,150.00 106.86,149.58 106.54,149.07 C105.67,147.66 107.14,141.98 109.45,136.94 ZM 13.37 104.72 C13.73,105.20 14.08,105.66 14.42,106.11 C10.95,102.05 8.67,97.67 7.01,92.30 C6.74,91.43 6.50,90.47 6.28,89.46 C7.64,94.91 10.09,100.26 13.37,104.72 ZM 5.08 79.64 C5.07,80.14 5.07,80.63 5.09,81.13 C4.90,78.53 4.92,76.40 5.19,75.58 C5.13,76.36 5.10,77.68 5.08,79.64 ZM 17.42 118.25 C17.08,118.60 17.79,121.84 18.88,125.62 C17.65,121.72 16.97,118.69 17.42,118.25 ZM 32.54 129.21 C33.18,129.05 34.88,129.99 37.11,131.59 C35.08,130.23 33.12,129.15 32.54,129.21 ZM 76.48 114.61 C76.43,113.16 77.14,112.28 78.49,111.01 C77.28,112.15 76.60,113.29 76.48,114.61 ZM 47.49 107.44 C51.70,110.55 55.20,113.67 58.37,117.16 C55.20,113.70 51.65,110.54 47.49,107.44 ZM 71.55 118.86 C67.21,111.97 61.24,105.11 51.05,95.00 C60.94,104.81 67.12,111.80 71.55,118.86 ZM 120.51 122.01 C123.67,118.67 127.15,115.33 130.29,112.71 C127.25,115.25 123.72,118.65 120.51,122.01 ZM 148.28 119.08 C151.74,116.47 154.45,114.13 156.03,112.35 C154.41,114.18 151.71,116.51 148.28,119.08 ZM 134.49 77.66 C128.69,56.42 120.92,45.39 107.00,38.65 C120.93,45.39 128.67,56.39 134.50,77.68 C134.74,78.59 134.68,79.30 134.13,80.06 C134.66,79.30 134.74,78.57 134.49,77.66 ZM 32.38 129.72 C32.32,129.50 32.31,129.35 32.37,129.30 C32.38,129.29 32.39,129.28 32.39,129.27 C32.34,129.35 32.34,129.50 32.38,129.72 Z" fill="rgb(222,18,11)"/>
<path d="M 171.47 41.16 C171.48,41.18 171.48,41.21 171.49,41.24 C173.35,49.67 173.15,55.03 170.60,64.91 C166.36,81.38 157.42,90.89 133.93,103.94 C132.92,104.50 131.90,105.11 130.88,105.75 C134.84,103.05 139.60,99.95 145.44,96.23 C150.93,92.74 164.00,79.46 164.00,77.38 C164.00,76.43 164.65,74.94 165.44,74.06 C167.14,72.19 170.25,58.01 169.81,54.17 C169.38,50.49 166.44,50.12 165.55,53.64 C165.18,55.15 163.88,57.76 162.68,59.44 L 160.50 62.50 L 159.98 51.50 C159.48,40.79 157.74,34.29 155.50,34.77 C154.92,34.90 154.42,39.47 154.32,45.53 C154.13,56.63 152.77,62.42 148.23,71.47 C145.65,76.63 135.99,86.64 131.23,89.08 C127.91,90.79 124.59,92.85 121.60,94.98 C123.46,93.56 125.58,92.00 128.00,90.28 C139.27,82.27 143.83,77.19 148.11,67.90 C153.25,56.74 153.13,34.02 148.29,17.17 C149.44,20.26 150.16,20.88 151.62,20.76 C153.10,20.64 153.62,20.19 153.03,18.63 C153.70,19.86 154.37,21.15 155.01,22.43 C161.07,34.63 163.06,44.97 161.33,55.21 C160.14,62.25 160.39,63.71 162.06,59.39 C164.03,54.28 165.96,43.66 165.98,37.81 C166.00,33.27 166.57,31.09 167.42,31.12 C167.68,31.22 167.94,31.40 168.21,31.65 C169.01,32.64 169.94,35.00 170.88,38.66 C171.08,39.46 171.28,40.30 171.47,41.16 ZM 25.21 21.13 C26.67,22.03 27.61,21.32 29.01,17.76 C25.68,29.68 25.02,48.58 27.87,59.58 C31.36,73.02 35.98,80.07 51.05,95.00 C54.56,98.48 57.57,101.57 60.18,104.42 C56.99,101.21 53.32,97.97 49.00,94.49 C37.78,85.46 30.71,75.01 26.66,61.50 C24.55,54.44 22.83,41.99 23.19,36.43 C23.59,30.37 21.98,29.83 19.76,35.25 C17.71,40.28 17.16,44.02 17.07,53.66 C17.04,56.99 16.98,58.78 16.70,59.66 C16.69,59.63 16.68,59.61 16.67,59.58 C12.50,48.72 17.74,25.67 27.00,14.15 C27.47,13.56 27.91,13.04 28.31,12.57 C28.15,12.79 27.97,13.01 27.80,13.25 C24.47,17.68 23.65,20.17 25.21,21.13 ZM 47.49 107.44 C44.92,105.53 42.11,103.64 39.02,101.73 C18.02,88.76 8.26,76.57 6.05,60.56 C4.95,52.58 6.08,41.18 8.74,33.50 L 9.02 32.68 C9.02,32.71 9.02,32.73 9.02,32.75 C9.01,33.44 9.45,34.00 10.00,34.00 C10.31,34.00 10.59,33.61 10.77,32.99 L 11.11 38.00 C11.73,47.22 14.19,58.28 16.00,60.42 C15.75,60.46 15.43,60.40 15.03,60.30 C13.95,60.02 12.85,59.05 12.59,58.14 C12.33,57.24 11.62,54.59 11.02,52.25 C9.05,44.63 7.73,47.20 8.20,57.75 C8.59,66.49 8.99,68.16 12.07,73.94 C17.91,84.91 23.61,90.33 41.50,101.90 C49.61,107.14 56.08,113.31 62.38,121.95 C61.11,120.28 59.78,118.69 58.37,117.16 C55.20,113.67 51.70,110.55 47.49,107.44 ZM 123.13 87.25 C123.13,87.30 123.13,87.34 123.13,87.39 L 119.37 89.28 C113.45,92.25 108.45,97.62 105.33,104.37 C104.63,105.89 104.10,107.04 103.70,108.26 C104.57,103.65 105.69,99.91 106.92,97.89 C108.53,95.25 113.42,90.92 117.64,88.40 C119.26,87.43 119.31,87.08 118.06,85.58 C115.97,83.05 109.61,84.04 105.23,87.22 L 106.50 86.06 L 102.37 86.03 C99.98,86.01 98.12,86.57 97.08,87.49 C97.82,86.65 98.98,86.00 100.31,85.81 C101.50,85.64 102.63,84.71 102.81,83.75 C103.33,81.01 95.32,81.44 88.36,84.52 C82.57,87.08 75.73,87.85 70.75,86.51 C65.74,85.15 67.58,88.77 74.03,92.94 C75.49,93.88 76.76,94.79 77.70,95.54 C77.09,95.22 76.36,94.88 75.56,94.58 C71.39,92.98 63.00,85.26 63.00,83.02 L 63.00 82.97 C63.00,82.57 63.00,82.30 63.13,82.18 C63.43,81.92 64.36,82.40 67.32,83.91 L 67.50 84.00 C73.44,87.03 80.66,86.66 89.24,82.89 C96.78,79.59 101.61,79.44 104.90,82.41 C106.12,83.52 107.96,83.76 112.02,83.35 C116.71,82.87 117.91,83.12 120.37,85.06 ZM 148.28 119.08 C147.02,120.03 145.67,121.00 144.23,122.00 C147.53,119.43 150.32,116.60 155.12,111.45 C160.56,105.62 166.25,94.89 165.81,91.29 C165.51,88.86 165.26,88.99 159.50,94.47 C153.67,100.02 148.02,103.85 147.98,102.28 C147.98,102.26 147.98,102.24 147.98,102.22 C148.78,101.67 149.95,100.91 151.17,100.16 C157.06,96.58 165.64,86.55 169.49,78.73 C171.01,75.66 172.18,73.69 172.51,73.59 C172.53,73.69 172.56,73.80 172.58,73.92 C172.58,73.95 172.57,73.97 172.57,74.00 C172.30,75.38 171.56,79.20 170.93,82.50 C168.86,93.30 163.62,103.82 156.03,112.35 C154.45,114.13 151.74,116.47 148.28,119.08 ZM 13.37 104.72 C10.09,100.26 7.64,94.91 6.28,89.46 C5.69,86.77 5.28,83.71 5.09,81.13 C5.07,80.63 5.07,80.14 5.08,79.64 C5.10,77.68 5.13,76.36 5.19,75.58 C5.41,74.93 5.78,75.10 6.33,76.50 C9.42,84.34 16.05,92.94 22.95,98.59 C21.57,97.63 20.52,97.00 20.27,97.00 C19.88,97.00 17.19,94.66 14.29,91.79 C7.38,84.97 6.16,86.20 10.23,95.92 C13.99,104.92 19.66,111.20 32.82,120.42 C31.60,119.62 30.33,118.80 29.00,117.96 C22.57,113.90 17.90,110.17 14.42,106.11 C14.08,105.66 13.73,105.20 13.37,104.72 ZM 77.14 97.91 C76.17,98.12 74.97,98.33 73.75,98.52 C70.64,98.98 69.00,99.72 69.00,100.65 C69.00,102.05 76.82,106.00 79.58,106.00 C80.62,106.00 81.05,106.53 80.93,107.37 C80.83,106.45 79.64,106.00 77.34,106.00 C73.09,106.00 67.78,102.42 65.50,98.00 L 64.40 95.88 C64.51,95.71 64.63,95.56 64.77,95.42 L 67.47 96.55 C70.13,97.66 74.46,98.17 77.14,97.91 ZM 17.42 118.25 C17.64,118.03 19.48,120.70 21.51,124.18 C22.70,126.21 23.95,128.18 25.23,130.06 C25.53,130.54 25.82,131.00 26.09,131.42 C25.81,130.99 25.49,130.52 25.14,130.00 C23.08,126.97 20.68,124.44 19.80,124.38 C19.06,124.32 18.70,124.42 18.75,125.16 C17.73,121.58 17.09,118.59 17.42,118.25 ZM 110.99 123.51 C113.75,119.53 116.87,116.19 122.33,111.93 C117.61,115.78 113.45,119.97 110.99,123.51 ZM 27.42 136.01 C28.35,135.60 28.25,134.83 26.64,132.28 C27.06,132.92 27.40,133.43 27.63,133.75 C29.12,135.83 29.12,136.00 27.59,136.00 C27.54,136.00 27.48,136.00 27.42,136.01 ZM 30.00 103.21 C30.62,103.51 31.24,103.81 31.86,104.13 C31.59,104.05 31.37,104.00 31.20,104.00 C30.71,104.00 28.84,102.88 26.75,101.37 C27.84,102.08 28.93,102.70 30.00,103.21 ZM 106.38 121.75 C106.27,122.75 106.20,123.63 106.17,124.39 C106.20,123.57 106.28,122.60 106.39,121.48 C106.83,117.23 107.22,114.94 108.39,111.76 C107.45,114.87 106.73,118.36 106.38,121.75 ZM 146.30 9.06 C146.08,9.33 146.16,10.24 146.57,11.81 C146.44,11.35 146.29,10.90 146.14,10.50 C145.48,8.74 145.34,8.16 146.30,9.06 ZM 54.39 120.99 C55.39,122.03 56.35,123.09 57.28,124.16 C58.43,125.52 59.54,126.92 60.62,128.36 C60.85,128.67 61.08,128.98 61.29,129.28 C59.38,126.69 56.92,123.73 54.39,120.99 ZM 31.13 10.16 C31.19,10.43 31.17,11.03 31.06,11.87 C30.95,12.23 30.79,12.65 30.59,13.12 C31.12,11.31 31.21,10.34 30.87,10.20 C30.98,10.16 31.06,10.15 31.13,10.16 ZM 10.52 29.36 C10.38,29.45 10.21,29.67 10.00,30.00 C9.96,30.07 9.91,30.14 9.87,30.21 L 10.46 28.50 ZM 64.99 135.63 C65.24,136.39 65.19,136.79 64.80,136.74 C64.96,136.66 65.00,136.33 65.00,135.76 C65.00,135.72 65.00,135.68 64.99,135.63 ZM 101.24 137.09 C101.21,137.33 101.18,137.40 101.17,137.29 C101.09,136.71 99.52,135.87 97.59,135.17 C99.32,135.79 100.79,136.51 101.24,137.09 ZM 38.87 124.53 C40.76,125.83 42.85,127.39 44.76,128.91 C43.71,128.09 42.57,127.22 41.32,126.31 C40.53,125.73 39.72,125.13 38.87,124.53 ZM 97.33 91.72 C98.24,92.20 99.58,91.82 101.31,90.60 C99.62,91.83 98.26,92.21 97.33,91.72 ZM 102.10 121.87 C102.07,122.46 102.04,123.08 102.01,123.72 C102.03,123.10 102.06,122.48 102.10,121.87 ZM 79.33 97.24 C79.33,97.28 79.31,97.30 79.28,97.32 C79.25,97.34 79.21,97.36 79.16,97.38 C79.23,97.34 79.29,97.29 79.33,97.24 ZM 25.03 138.42 C25.06,138.32 25.10,138.23 25.15,138.13 C25.09,138.28 25.04,138.42 24.99,138.54 C25.00,138.50 25.01,138.46 25.03,138.42 ZM 146.67 12.20 C146.68,12.25 146.70,12.31 146.72,12.37 L 146.70 12.33 C146.69,12.29 146.68,12.24 146.67,12.20 Z" fill="rgb(207,182,53)"/>
<path d="M 83.52 131.24 C82.06,127.59 80.00,123.19 78.90,121.37 C77.30,117.97 76.52,116.02 76.48,114.61 C76.60,113.29 77.28,112.16 78.49,111.01 L 78.49 111.01 C78.50,111.00 78.52,110.99 78.53,110.97 C80.21,109.39 81.01,108.19 80.93,107.37 C81.05,106.53 80.62,106.00 79.58,106.00 C78.24,106.00 75.70,105.07 73.45,103.95 C75.85,104.86 77.03,104.82 79.22,103.91 C81.66,102.90 82.34,102.93 83.06,104.09 C84.04,105.68 86.19,106.00 87.11,104.70 C87.45,104.22 89.81,103.61 92.35,103.35 C97.50,102.81 97.55,102.87 100.00,111.95 C101.11,116.05 101.81,116.41 102.89,112.07 C102.86,112.37 102.82,112.69 102.79,113.02 C102.49,115.22 102.29,117.97 102.10,121.87 L 102.10 121.87 C102.06,122.48 102.03,123.10 102.01,123.72 L 102.01 123.72 C102.00,123.98 101.98,124.24 101.97,124.50 C101.68,130.88 101.38,135.93 101.24,137.09 C100.79,136.51 99.32,135.79 97.59,135.17 C95.25,134.33 92.38,133.67 91.00,133.88 C90.18,134.01 88.76,134.98 87.85,136.04 C86.27,137.89 86.09,137.70 83.52,131.24 ZM 109.45 136.94 C110.08,135.56 110.77,134.23 111.49,133.05 C113.20,130.25 116.62,126.13 120.51,122.01 C123.72,118.64 127.25,115.25 130.29,112.71 C131.82,111.42 136.10,108.84 139.79,106.97 C143.48,105.10 146.73,103.30 147.00,102.98 C147.11,102.85 147.47,102.58 147.98,102.22 C147.98,102.24 147.98,102.26 147.98,102.28 C148.01,103.67 152.48,100.80 157.57,96.25 C155.96,97.71 154.30,99.17 153.00,100.24 C149.12,103.44 148.81,103.96 150.75,103.98 C153.65,104.01 153.74,107.12 151.00,112.50 C149.90,114.66 149.00,116.66 149.00,116.96 C149.00,117.25 151.26,115.24 154.03,112.50 C159.64,106.93 165.82,95.91 165.83,91.62 C165.92,95.51 160.40,105.79 155.12,111.45 C150.32,116.60 147.53,119.43 144.23,122.00 C140.60,124.53 136.45,127.19 132.07,129.77 C130.31,130.81 128.56,131.93 126.85,133.11 C124.33,134.66 122.40,135.87 121.86,136.23 C120.58,137.10 119.84,136.98 118.53,135.68 C116.41,133.56 114.60,133.56 111.36,135.68 ZM 54.39 120.99 C56.92,123.73 59.38,126.69 61.29,129.28 C63.27,132.03 64.57,134.34 64.99,135.63 C65.00,135.68 65.00,135.72 65.00,135.76 C65.00,136.33 64.96,136.66 64.80,136.74 C64.48,136.70 63.95,136.36 63.17,135.65 C60.72,133.44 58.29,133.57 56.77,136.00 C56.08,137.10 55.27,138.00 54.97,138.00 C54.66,138.00 52.42,135.96 49.97,133.47 C48.66,132.14 46.92,130.62 44.76,128.91 C42.85,127.39 40.76,125.83 38.87,124.53 C37.01,123.21 35.01,121.85 32.82,120.42 C28.48,117.38 24.95,114.65 22.04,112.05 C22.56,112.50 23.11,112.96 23.68,113.43 C26.73,115.95 29.63,118.00 30.11,118.00 C31.85,118.00 30.95,115.95 27.54,112.18 C23.97,108.22 21.68,103.66 22.73,102.60 C23.06,102.27 24.19,102.00 25.24,102.00 C26.69,102.00 26.68,101.66 24.82,100.04 C25.46,100.51 26.11,100.96 26.75,101.37 C28.84,102.88 30.71,104.00 31.20,104.00 C31.37,104.00 31.59,104.05 31.86,104.13 C40.06,108.33 47.93,114.29 54.39,120.99 ZM 78.00 136.50 C76.40,133.51 75.41,133.36 73.84,135.88 C72.83,137.50 72.16,136.93 67.84,130.04 C67.63,129.70 67.42,129.35 67.21,129.00 C65.66,126.49 64.07,124.15 62.38,121.95 C57.32,115.01 52.16,109.68 46.13,105.13 C49.66,107.68 52.97,110.31 54.50,111.86 C56.70,114.08 58.84,115.92 59.25,115.95 C60.44,116.03 60.13,113.24 58.50,109.35 C56.56,104.69 56.61,103.65 58.75,104.38 C59.71,104.71 57.62,102.39 54.09,99.24 C51.59,97.00 49.42,95.04 47.52,93.28 C48.01,93.68 48.50,94.09 49.00,94.49 C53.32,97.97 56.99,101.21 60.18,104.42 C64.99,109.63 68.65,114.23 71.55,118.86 C74.63,123.78 76.86,128.74 78.91,134.69 C80.13,138.62 80.20,140.61 78.00,136.50 ZM 110.99 123.51 C110.97,123.54 110.95,123.57 110.93,123.60 C107.25,128.95 105.95,129.35 106.17,124.39 C106.20,123.63 106.27,122.75 106.38,121.75 C106.73,118.36 107.45,114.87 108.39,111.76 C108.97,110.17 109.74,108.37 110.81,106.00 C111.15,105.25 111.62,104.46 112.24,103.63 L 116.24 103.96 C118.58,104.15 121.70,104.35 123.17,104.40 C124.63,104.46 126.17,104.84 126.58,105.25 C128.01,106.68 130.72,105.99 134.60,103.21 C136.53,101.83 139.91,99.65 142.50,98.11 C137.98,101.01 134.15,103.52 130.88,105.75 C127.99,107.57 125.07,109.69 122.33,111.93 C116.87,116.19 113.75,119.53 111.00,123.51 ZM 27.42 136.01 C26.55,136.12 25.55,137.03 25.15,138.13 L 25.15 138.13 C25.10,138.23 25.06,138.32 25.03,138.42 C25.01,138.46 25.00,138.50 24.99,138.54 C24.71,139.18 24.47,139.38 24.11,139.03 C24.09,138.98 24.06,138.93 24.04,138.88 C22.13,134.86 20.19,129.75 18.88,125.62 C18.83,125.46 18.79,125.31 18.75,125.16 C18.70,124.42 19.06,124.32 19.80,124.38 C20.68,124.44 23.08,126.97 25.14,130.00 C25.49,130.52 25.81,130.99 26.09,131.42 C26.29,131.73 26.47,132.02 26.64,132.28 L 26.64 132.28 C28.25,134.83 28.35,135.60 27.42,136.01 ZM 151.29 128.70 C151.18,129.71 150.52,131.35 149.49,133.34 C149.15,133.94 148.77,134.58 148.34,135.25 C145.83,139.23 145.33,139.50 143.06,138.06 C141.87,137.30 142.08,136.50 144.33,133.32 C145.97,131.02 147.13,129.41 147.99,128.32 C150.16,125.79 151.59,125.84 151.29,128.70 ZM 32.54 129.21 C33.12,129.15 35.08,130.23 37.11,131.59 C38.45,132.55 39.99,133.75 41.61,135.09 C41.81,135.29 41.98,135.47 42.12,135.64 C43.05,136.77 42.96,136.92 41.63,136.41 C40.72,136.06 39.33,136.31 38.55,136.96 C37.66,137.70 37.01,137.56 35.81,135.94 C33.99,133.13 32.66,130.69 32.38,129.72 C32.34,129.50 32.34,129.35 32.39,129.27 C32.44,129.24 32.48,129.22 32.54,129.21 ZM 23.19 36.43 C22.94,40.29 23.70,47.49 24.89,53.90 C23.56,47.56 22.88,41.22 23.19,36.43 ZM 145.30 96.32 C149.05,93.62 154.43,88.71 158.46,84.53 C154.22,89.01 148.58,94.23 145.44,96.23 ZM 8.60 87.49 C9.54,87.52 11.42,88.96 14.29,91.79 C11.45,88.99 9.56,87.55 8.60,87.49 C7.39,87.45 7.76,89.77 9.65,94.50 C7.68,89.73 7.32,87.40 8.60,87.49 ZM 69.07 100.90 C69.02,100.81 69.00,100.72 69.00,100.65 C69.00,99.72 70.64,98.98 73.75,98.52 C70.52,99.00 68.94,99.86 69.07,100.90 ZM 9.65 94.50 C9.73,94.70 9.82,94.91 9.91,95.13 C10.77,97.16 11.61,98.95 12.50,100.59 C11.66,99.10 10.91,97.55 10.23,95.92 C10.02,95.42 9.83,94.95 9.65,94.50 ZM 123.58 93.62 C125.15,92.56 126.80,91.54 128.46,90.59 C126.83,91.52 125.16,92.56 123.58,93.62 ZM 112.74 91.88 C114.32,90.58 116.02,89.36 117.64,88.40 C116.03,89.36 114.32,90.58 112.74,91.88 ZM 36.86 82.10 C36.56,81.69 36.26,81.29 35.98,80.88 C36.27,81.29 36.56,81.69 36.86,82.10 ZM 160.23 93.78 C160.07,93.93 159.92,94.07 159.75,94.23 C159.92,94.07 160.07,93.92 160.23,93.78 ZM 106.75 98.18 C106.80,98.10 106.84,98.02 106.88,97.95 C106.89,97.94 106.90,97.93 106.90,97.92 C106.85,98.00 106.80,98.09 106.75,98.18 Z" fill="rgb(233,98,15)"/>
<path d="M 23.19 36.43 C22.88,41.22 23.56,47.56 24.89,53.90 C25.41,56.70 26.02,59.35 26.66,61.50 C28.84,68.76 31.88,75.14 35.98,80.88 C36.26,81.29 36.56,81.69 36.86,82.10 C39.87,86.10 43.40,89.79 47.52,93.28 C49.42,95.04 51.59,97.00 54.09,99.24 C57.62,102.39 59.71,104.71 58.75,104.38 C56.61,103.65 56.56,104.69 58.50,109.35 C60.13,113.24 60.44,116.03 59.25,115.95 C58.84,115.92 56.70,114.08 54.50,111.86 C52.97,110.31 49.66,107.68 46.13,105.13 C44.64,104.01 43.10,102.94 41.50,101.90 C23.61,90.33 17.91,84.91 12.07,73.94 C8.99,68.16 8.59,66.49 8.20,57.75 C7.73,47.20 9.05,44.63 11.02,52.25 C11.62,54.59 12.33,57.24 12.59,58.14 C12.85,59.05 13.95,60.02 15.03,60.30 C15.43,60.40 15.75,60.46 16.00,60.42 C16.11,60.54 16.21,60.63 16.31,60.69 C16.93,61.08 17.08,60.68 16.70,59.66 C16.98,58.78 17.04,56.99 17.07,53.66 C17.16,44.02 17.71,40.28 19.76,35.25 C21.98,29.83 23.59,30.37 23.19,36.43 ZM 145.30 96.32 C144.33,96.93 143.40,97.53 142.50,98.11 C139.91,99.65 136.53,101.83 134.60,103.21 C130.72,105.99 128.01,106.68 126.58,105.25 C126.17,104.84 124.63,104.46 123.17,104.40 C121.70,104.35 118.58,104.15 116.24,103.96 L 112.24 103.63 C113.99,101.30 116.94,98.57 121.60,94.98 C122.25,94.52 122.90,94.07 123.58,93.62 C125.16,92.56 126.82,91.53 128.46,90.59 L 128.46 90.59 C129.38,90.06 130.31,89.56 131.23,89.08 C135.99,86.64 145.65,76.63 148.23,71.47 C152.77,62.42 154.13,56.63 154.32,45.53 C154.42,39.47 154.92,34.90 155.50,34.77 C157.74,34.29 159.48,40.79 159.98,51.50 L 160.50 62.50 L 162.68 59.44 C163.88,57.76 165.18,55.15 165.55,53.64 C166.44,50.12 169.38,50.49 169.81,54.17 C170.25,58.01 167.14,72.19 165.44,74.06 C164.65,74.94 164.00,76.43 164.00,77.38 C164.00,78.27 161.62,81.19 158.46,84.53 C154.43,88.71 149.05,93.62 145.30,96.32 ZM 103.23 89.03 L 105.23 87.22 C109.61,84.04 115.97,83.05 118.06,85.58 C119.31,87.08 119.26,87.43 117.64,88.40 C117.56,88.44 117.47,88.49 117.39,88.55 C115.85,89.48 114.24,90.65 112.74,91.88 C110.16,93.98 107.91,96.26 106.92,97.89 C106.91,97.90 106.91,97.91 106.90,97.92 L 106.90 97.92 C106.90,97.93 106.89,97.94 106.88,97.95 C106.84,98.02 106.80,98.10 106.75,98.18 C105.59,100.26 104.53,103.87 103.70,108.26 C103.34,109.36 103.08,110.52 102.89,112.07 C101.81,116.41 101.11,116.05 100.00,111.95 C97.55,102.87 97.50,102.81 92.35,103.35 C89.81,103.61 87.45,104.22 87.11,104.70 C86.19,106.00 84.04,105.68 83.06,104.09 C82.34,102.93 81.66,102.90 79.22,103.91 C77.03,104.82 75.85,104.86 73.45,103.95 C71.32,102.89 69.44,101.66 69.07,100.90 C68.94,99.86 70.52,99.00 73.75,98.52 C74.97,98.33 76.17,98.12 77.14,97.91 C78.05,97.83 78.77,97.65 79.16,97.38 C79.21,97.36 79.25,97.34 79.28,97.32 C79.31,97.30 79.33,97.28 79.33,97.24 C79.37,97.21 79.40,97.17 79.42,97.13 C79.62,96.81 78.91,96.19 77.70,95.54 C76.76,94.79 75.49,93.88 74.03,92.94 C67.58,88.77 65.74,85.15 70.75,86.51 C75.73,87.85 82.57,87.08 88.36,84.52 C95.32,81.44 103.33,81.01 102.81,83.75 C102.63,84.71 101.50,85.64 100.31,85.81 C98.98,86.00 97.82,86.65 97.08,87.49 C96.20,88.27 95.90,89.31 96.36,90.49 C96.59,91.08 96.91,91.49 97.33,91.72 L 97.33 91.72 C98.26,92.21 99.62,91.83 101.31,90.60 L 101.31 90.60 C101.90,90.18 102.55,89.65 103.23,89.03 ZM 20.27 97.00 C20.52,97.00 21.57,97.63 22.95,98.59 C23.57,99.10 24.19,99.58 24.82,100.04 C26.68,101.66 26.69,102.00 25.24,102.00 C24.19,102.00 23.06,102.27 22.73,102.60 C21.68,103.66 23.97,108.22 27.54,112.18 C30.95,115.95 31.85,118.00 30.11,118.00 C29.63,118.00 26.73,115.95 23.68,113.43 C23.11,112.96 22.56,112.50 22.04,112.05 L 22.04 112.05 C17.73,108.19 14.77,104.59 12.50,100.59 C11.61,98.95 10.77,97.16 9.91,95.13 C9.82,94.91 9.73,94.70 9.65,94.50 C7.76,89.77 7.39,87.45 8.60,87.49 C9.55,87.55 11.43,88.97 14.23,91.73 C14.25,91.75 14.27,91.77 14.29,91.79 C17.19,94.66 19.88,97.00 20.27,97.00 ZM 160.23 93.78 C165.28,88.98 165.53,88.97 165.81,91.29 C165.82,91.40 165.83,91.51 165.83,91.62 C165.82,95.91 159.64,106.93 154.03,112.50 C151.26,115.24 149.00,117.25 149.00,116.96 C149.00,116.66 149.90,114.66 151.00,112.50 C153.74,107.12 153.65,104.01 150.75,103.98 C148.81,103.96 149.12,103.44 153.00,100.24 C154.30,99.17 155.96,97.71 157.57,96.25 C158.21,95.68 158.85,95.08 159.50,94.47 C159.59,94.39 159.67,94.31 159.75,94.23 L 159.76 94.23 C159.92,94.07 160.07,93.93 160.23,93.78 Z" fill="rgb(244,155,11)"/>
<path d="M 53.72 90.70 C47.21,84.84 46.96,83.81 49.57,73.73 C52.18,63.67 57.58,54.21 64.88,46.92 C73.52,38.30 79.93,35.62 92.00,35.55 C99.54,35.51 101.23,35.85 107.00,38.65 C120.93,45.39 128.67,56.39 134.50,77.68 C134.97,79.41 134.31,80.40 131.33,82.42 L 127.57 84.98 L 124.26 81.77 C121.30,78.90 120.30,78.55 114.68,78.43 C111.23,78.35 107.30,77.68 105.95,76.95 C101.85,74.71 94.14,75.31 88.28,78.32 C81.53,81.79 74.48,81.90 67.50,78.65 C64.75,77.37 61.88,75.57 61.13,74.66 C60.37,73.75 59.36,73.00 58.88,73.00 C57.32,73.00 57.99,80.37 59.93,84.65 C60.96,86.93 61.44,89.18 60.98,89.65 C60.53,90.12 60.01,91.71 59.83,93.20 L 59.50 95.89 L 53.72 90.70 ZM 9.02 32.75 C9.02,32.06 9.47,30.83 10.00,30.00 C10.76,28.83 10.97,29.11 10.98,31.25 C10.99,32.76 10.55,34.00 10.00,34.00 C9.45,34.00 9.01,33.44 9.02,32.75 ZM 25.21 21.13 C23.65,20.17 24.47,17.68 27.80,13.25 C31.26,8.64 31.96,9.22 29.98,15.07 C27.99,20.94 26.98,22.22 25.21,21.13 ZM 147.35 14.44 C145.03,7.32 146.21,7.15 150.46,13.99 C153.88,19.48 154.06,20.56 151.62,20.76 C149.81,20.91 149.13,19.91 147.35,14.44 Z" fill="rgb(246,231,167)"/>
</g>
</svg>